<svg width="32" height="32" viewBox="0 0 200 200" xmlns="http://www.w3.org/2000/svg">
  <!-- Outer circle -->
  <circle cx="100" cy="100" r="95" fill="none" stroke="#ffffff" stroke-width="8"/>
  <!-- Inner circle -->
  <circle cx="100" cy="100" r="85" fill="none" stroke="#ffffff" stroke-width="4"/>
  
  <!-- Top text: ARNAB'S -->
  <path id="topText" d="M 30,100 A 70,70 0 0,1 170,100" fill="none"/>
  <text font-family="Arial, sans-serif" font-size="16" font-weight="bold" fill="#ffffff">
    <textPath href="#topText" startOffset="25%" text-anchor="middle">
      ARNAB'S
    </textPath>
  </text>
  
  <!-- Bottom text: WINDOW -->
  <path id="bottomText" d="M 170,100 A 70,70 0 0,1 30,100" fill="none"/>
  <text font-family="Arial, sans-serif" font-size="16" font-weight="bold" fill="#ffffff">
    <textPath href="#bottomText" startOffset="25%" text-anchor="middle">
      WINDOW
    </textPath>
  </text>
  
  <!-- Airplane in upper-left -->
  <g transform="translate(50, 50)">
    <!-- Airplane body -->
    <path d="M 0,10 L 20,5 L 25,10 L 20,15 L 0,10 Z" fill="#ffffff"/>
    <!-- Airplane tail -->
    <path d="M 0,10 L 5,5 L 0,0 Z" fill="#ffffff"/>
    <!-- Airplane wing -->
    <path d="M 10,10 L 15,0 L 18,5 L 15,10 Z" fill="#ffffff"/>
    <!-- Dashed trail -->
    <line x1="25" y1="10" x2="35" y2="8" stroke="#ffffff" stroke-width="2" stroke-dasharray="3,3"/>
  </g>
  
  <!-- Horizontal lines -->
  <line x1="30" y1="80" x2="120" y2="80" stroke="#ffffff" stroke-width="2"/>
  <line x1="30" y1="90" x2="120" y2="90" stroke="#ffffff" stroke-width="2"/>
  <line x1="30" y1="100" x2="120" y2="100" stroke="#ffffff" stroke-width="2"/>
  
  <!-- Globe in lower-right -->
  <g transform="translate(120, 120)">
    <!-- Globe circle -->
    <circle cx="0" cy="0" r="25" fill="none" stroke="#ffffff" stroke-width="2"/>
    <!-- Continents (simplified) -->
    <!-- Europe/Africa shape -->
    <path d="M -5,-15 Q -8,-10 -5,-5 Q -3,0 -5,5 Q -8,10 -5,15" fill="none" stroke="#ffffff" stroke-width="2"/>
    <!-- Asia shape -->
    <path d="M 5,-10 Q 10,-5 15,-8 Q 18,-5 15,-2 Q 12,0 10,5" fill="none" stroke="#ffffff" stroke-width="2"/>
    <!-- Horizontal latitude lines -->
    <ellipse cx="0" cy="-10" rx="25" ry="3" fill="none" stroke="#ffffff" stroke-width="1"/>
    <ellipse cx="0" cy="10" rx="25" ry="3" fill="none" stroke="#ffffff" stroke-width="1"/>
  </g>
</svg>

